#!OML:ASF E:\Mandelcareful walks\Project 1\Capture day 1\Session 1\Subject1.ASF
:FULLY-SPECIFIED
:DEGREES
1257
root -19.5716 14.9002 -11.55 -1614.85 -56.9585 -190.419
lowerback 11.1639 0.0593894 -5.27017
upperback 5.11196 -0.825505 -1.73135
thorax -0.877586 -0.61673 1.26432
lowerneck -21.195 11.1553 4.76178
upperneck 31.6562 17.2183 -9.42572
head 16.225 6.06349 -1.35519
rclavicle -1.69961e-014 -2.50469e-014
rhumerus -42.8995 14.9234 -84.3101
rradius 51.8796
rwrist -17.862
rhand -7.71293 -22.1857
rfingers 7.12502
rthumb 18.185 -51.3557
lclavicle -1.69961e-014 -2.50469e-014
lhumerus -31.0031 -19.6532 74.6005
lradius 63.0407
lwrist 28.2609
lhand -20.3151 -10.476
lfingers 7.12502
lthumb 6.03558 19.418
rfemur -24.5441 -4.95716 6.45945
rtibia 82.5109
rfoot -13.1634 -11.4286
rtoes -9.50923
lfemur -22.2876 5.06977 -35.2954
ltibia 56.6991
lfoot -26.8056 7.69018
ltoes 10.2716
1258
root -19.8411 14.9772 -11.7608 -1614.41 -58.842 -190.202
lowerback 11.1421 -0.600836 -5.04851
upperback 4.75527 -1.63942 -1.40198
thorax -1.18479 -0.991306 1.58005
lowerneck -21.0822 11.2871 4.7819
upperneck 31.6008 17.492 -9.67351
head 16.2394 6.14524 -1.40593
rclavicle 4.76229e-014 2.45996e-014
rhumerus -44.0268 15.815 -84.4354
rradius 52.8238
rwrist -16.9928
rhand -6.91099 -21.1252
rfingers 7.12502
rthumb 18.9564 -50.2214
lclavicle 4.76229e-014 2.45996e-014
lhumerus -29.8603 -18.5046 74.7874
lradius 65.9338
lwrist 31.7403
lhand -21.089 -10.1975
lfingers 7.12502
lthumb 5.2884 19.7165
rfemur -27.9793 -4.16359 7.57517
rtibia 78.9189
rfoot -14.1503 -12.8355
rtoes -7.62134
lfemur -21.1982 4.08606 -34.6034
ltibia 56.1425
lfoot -27 6.31681
ltoes 11.8132
1259
root -20.1712 15.0608 -11.9751 -1612.08 -60.2272 -192.666
lowerback 10.4994 -1.03929 -5.64581
upperback 4.82298 -2.23718 -1.67235
thorax -0.711122 -1.30722 1.67834
lowerneck -21.2127 11.3465 4.81736
upperneck 31.5807 17.6039 -9.74606
head 16.2864 6.18186 -1.40853
rclavicle -3.39549e-014 2.98177e-015
rhumerus -44.7642 16.1325 -84.5699
rradius 53.5755
rwrist -16.0128
rhand -6.95184 -20.7155
rfingers 7.12502
rthumb 18.9171 -49.8156
lclavicle -3.39549e-014 2.98177e-015
lhumerus -28.6596 -18.3564 75.1635
lradius 68.4059
lwrist 34.1927
lhand -22.4427 -10.6425
lfingers 7.12502
lthumb 3.98131 19.3001
rfemur -29.7452 -3.08311 6.34663
rtibia 74.0393
rfoot -15.9962 -12.7033
rtoes -0.688654
lfemur -18.8863 3.46105 -35.5565
ltibia 55.1421
lfoot -27.1668 5.40978
ltoes 11.5043
1260
root -20.4572 15.1693 -12.1907 -1612.74 -61.7323 -191.094
lowerback 9.9981 -1.56252 -4.82743
upperback 4.65739 -2.7796 -1.14699
thorax -0.586392 -1.55522 1.80468
lowerneck -21.4449 11.4744 4.94962
upperneck 31.6396 17.9041 -10.1341
head 16.4785 6.24302 -1.51308
rclavicle 2.52332e-014 -4.07509e-015
rhumerus -45.2041 16.4426 -84.4652
rradius 53.9955
rwrist -15.4357
rhand -7.02345 -20.6125
rfingers 7.12502
rthumb 18.8483 -49.7193
lclavicle 2.52332e-014 -4.07509e-015
lhumerus -27.5768 -18.3959 75.9427
lradius 70.3613
lwrist 35.1499
lhand -23.7726 -11.7022
lfingers 7.12502
lthumb 2.69694 18.2605
rfemur -31.8948 -1.56506 7.70132
rtibia 68.0391
rfoot -17.278 -14.4847
rtoes -1.12547
lfemur -17.4298 3.18948 -34.1317
ltibia 54.1781
lfoot -26.638 4.17338
ltoes 12.0292
1261
root -20.7578 15.2872 -12.4004 -1611.59 -63.3023 -191.681
lowerback 9.44685 -1.98992 -4.43481
upperback 4.5168 -3.26272 -1.15868
thorax -0.422655 -1.78246 1.59775
lowerneck -21.7126 11.4333 4.91533
upperneck 31.7742 17.8728 -10.1036
head 16.5967 6.21079 -1.49061
rclavicle -2.15184e-014 -9.34288e-015
rhumerus -45.6473 15.8557 -84.3888
rradius 54.1513
rwrist -15.3814
rhand -7.15948 -20.1132
rfingers 7.12502
rthumb 18.7174 -49.2326
lclavicle -2.15184e-014 -9.34288e-015
lhumerus -26.5207 -19.4024 76.6987
lradius 71.8806
lwrist 35.1453
lhand -24.7175 -13.2179
lfingers 7.12502
lthumb 1.78445 16.7544
rfemur -32.972 -0.39748 7.27775
rtibia 61.2903
rfoot -17.183 -14.9831
rtoes -2.31402
lfemur -15.6908 2.73603 -33.871
ltibia 53.0126
lfoot -25.4011 3.30911
ltoes 13.2648
1262
root -21.0827 15.4308 -12.6283 -1610.67 -64.8255 -192.387
lowerback 8.91432 -2.349 -4.45748
upperback 4.45574 -3.69671 -1.07769
thorax -0.16071 -1.99843 1.70453
lowerneck -21.8466 11.3764 4.93736
upperneck 31.9193 17.7936 -10.074
head 16.6912 6.17035 -1.49575
rclavicle 1.61264e-014 -2.68359e-015
rhumerus -46.1302 15.2461 -84.2618
rradius 54.1271
rwrist -15.79
rhand -7.35299 -20.1609
rfingers 7.12502
rthumb 18.5313 -49.2982
lclavicle 1.61264e-014 -2.68359e-015
lhumerus -25.7968 -20.6468 77.5881
lradius 72.9818
lwrist 34.5753
lhand -25.1734 -14.9536
lfingers 7.12502
lthumb 1.34412 15.0219
rfemur -33.0172 1.34567 6.56261
rtibia 54.1607
rfoot -13.9164 -14.6039
rtoes -7.77101
lfemur -13.7922 2.36431 -33.4326
ltibia 52.0953
lfoot -23.7331 2.61403
ltoes 12.0378
